<?xml version="1.0" encoding="utf-8"?>
<!-- Generator: Adobe Illustrator 16.0.0, SVG Export Plug-In . SVG Version: 6.00 Build 0)  -->
<!DOCTYPE svg PUBLIC "-//W3C//DTD SVG 1.1//EN" "http://www.w3.org/Graphics/SVG/1.1/DTD/svg11.dtd">
<svg version="1.1" id="圖層_1" xmlns="http://www.w3.org/2000/svg" xmlns:xlink="http://www.w3.org/1999/xlink" x="0px" y="0px"
	 width="340px" height="340px" viewBox="0 0 340 340" enable-background="new 0 0 340 340" xml:space="preserve">
<rect fill="#F0325B" width="340" height="340"/>
<path fill="#FFFFFF" d="M320,306.716c0,7.336-7.008,13.284-15.652,13.284H35.652C27.008,320,20,314.052,20,306.716V33.284
	C20,25.947,27.008,20,35.652,20h268.695C312.992,20,320,25.947,320,33.284V306.716z"/>
<path fill-rule="evenodd" clip-rule="evenodd" fill="#FDFDFD" d="M80.853,98.117c0-12.154,0.243-24.317-0.125-36.461
	c-0.139-4.58,1.036-5.607,5.594-5.592c54.697,0.184,109.394,0.119,164.09,0.119c-10.132,4.167-20.85,6.316-31.378,9.123
	c-5.437,1.45-10.458,3.255-10.452,10.362c0.038,47.705,0.074,95.41-0.063,143.113c-0.014,5.11,2.798,9.107,6.535,9.854
	c15.478,3.09,29.781,11.817,46.297,9.871c0.623,2.88-1.601,1.785-2.713,1.786c-58.358,0.042-116.715,0.042-175.074,0
	c-1.112-0.001-3.335,1.094-2.712-1.786c3.731,0.371,7.154-2.726,11.307-0.193c2.519,1.537,4.554-0.936,6.248-3.477
	c5.11-7.668,9.198-15.613,8.188-26.467c5.617,3.592,7.119,7.158,7.072,11.628c-0.049,4.538,0.214,9.089-0.055,13.611
	c-0.307,5.164,3.044,5.433,6.437,4.785c3.483-0.665,9.67,3.221,9.759-4.082c0.157-12.976,2.42-26.062-9.718-36.748
	c-5.143-4.528-14.33-9.734-11.333-20.019c4.706,1.369,9.254,4.226,13.131,3.499c8.197-1.535,8.387-8.801,8.102-15.611
	c3.93,7.365,2.84,13.388-4.201,18.449c-1.593,1.146-5.939,2.521-3.115,5.922c1.823,2.196,3.325,5.913,8.011,3.739
	c3.438-1.595,7.507-2.147,11.353-2.475c6.828-0.58,8.818-4.506,7.939-10.521c-1.471-10.066-3.236-20.091-4.733-30.153
	c-1.74-11.71-3.327-23.443-4.979-35.167c4.674,16.992,7.207,34.274,9.918,51.528c3.397,21.617,0.183,23.447,23.304,16.994
	c7.293-2.034,10.286-6.035,8.896-13.875c-2.605-14.694-4.898-29.461-6.694-44.274c-0.783-6.459-0.914-13.769-7.052-16.538
	c-5.488-2.477-11.121-3.995-15.104-8.911c-0.329-0.406-2.558,0.052-3.264,0.753c-2.19,2.169-4.147,1.66-7.07,1.386
	c-6.65-0.623-12.117,5.588-19.257,4.774c-0.697-0.079-2.476,2.137-2.282,2.498c3.963,7.374-3.197,7.252-6.42,9.763
	c-2.254,1.754-3.252,3.938-3.508,6.958c-0.677,7.948,1.941,15.489,2.505,23.285c0.282,3.893,3.08,7.576,8.002,8.804
	c3.587,0.896,7.967,1.866,7.866,7.206c-10.957-4.067-21.282-8.788-23.853-21.994c-0.336-1.73-1.122-3.389-1.819-5.03
	c-1.795-4.225-5.983-7.445-9.482-6.869c-4.16,0.685-7.42,4.808-6.849,10.265c0.934,8.914,1.134,17.941,2.647,26.749
	c2.391,13.913,2.962,27.525-0.083,41.528c-1.652,7.596-3.881,14.123-9.816,19.163c0-34.642,0-69.282,0-103.924
	c8.591,5.612,12.084,4.902,19.472-3.958c5.544-6.649,5.093-15.784-1.359-22.46C93.314,93.201,87.183,92.707,80.853,98.117z"/>
<path fill-rule="evenodd" clip-rule="evenodd" fill="#FEFEFE" d="M261.352,169.222c0,21.271,0,42.542,0,63.813
	c-5.992-1.822-11.91-3.953-17.989-5.413c-24.026-5.771-24.046-5.692-24.046-30.04c0-38.558-0.016-77.118,0.029-115.677
	c0.003-3.477-1.142-7.812,3.776-9.068c12.711-3.248,25.482-6.258,38.229-9.362c0,30.387,0,60.774,0,91.161
	c-4.527-2.529-8.885-1.941-13.792-0.476c-6.521,1.947-5.417,7.565-5.491,11.383c-0.084,4.361,4.473,5.587,8.815,5.437
	C254.479,170.855,258.135,171.468,261.352,169.222z M241.291,114.917c-0.258-2.909-0.46-5.333-3.926-4.663
	c-4.24,0.819-9.395,0.307-8.848,7.276c0.314,4.005,1.785,6.421,5.956,6.025C239.924,123.038,240.149,118.339,241.291,114.917z"/>
<path fill-rule="evenodd" clip-rule="evenodd" fill="#4AA1FD" d="M80.853,229.389c5.935-5.04,8.164-11.567,9.816-19.163
	c3.045-14.003,2.474-27.615,0.083-41.528c-1.513-8.807-1.714-17.834-2.647-26.749c-0.572-5.457,2.688-9.581,6.849-10.265
	c3.499-0.576,7.687,2.644,9.482,6.869c0.697,1.641,1.482,3.3,1.819,5.03c2.57,13.206,12.896,17.927,23.853,21.994l-0.116-0.146
	c0.286,6.812,0.096,14.077-8.102,15.612c-3.877,0.727-8.425-2.13-13.131-3.499c-2.998,10.284,6.19,15.49,11.333,20.019
	c12.139,10.687,9.875,23.772,9.718,36.748c-0.089,7.303-6.276,3.417-9.759,4.082c-3.393,0.647-6.744,0.379-6.437-4.785
	c0.27-4.522,0.006-9.073,0.055-13.611c0.047-4.47-1.456-8.036-7.072-11.628c1.01,10.854-3.079,18.799-8.188,26.467
	c-1.693,2.541-3.729,5.014-6.248,3.477c-4.153-2.532-7.576,0.564-11.307,0.193C80.853,235.467,80.853,232.427,80.853,229.389z
	 M111.171,166.639c-6.329-5.837-10.078-12.57-13.389-20.451c-1.895,9.416,1.353,17.283,1.756,26.609
	C103.356,169.407,106.327,166.184,111.171,166.639z M101.152,201.937c7.483-5.695,10.531,2.674,16.635,3.207
	c-5.823-5.033-11.646-10.065-16.635-14.377C101.152,193.083,101.152,196.944,101.152,201.937z"/>
<path fill-rule="evenodd" clip-rule="evenodd" fill="#4AA1FD" d="M261.352,63.476c-12.747,3.104-25.519,6.114-38.229,9.362
	c-4.918,1.256-3.773,5.591-3.776,9.068c-0.045,38.559-0.029,77.119-0.029,115.677c0,24.348,0.02,24.27,24.046,30.04
	c6.079,1.46,11.997,3.591,17.989,5.413c0,1.823,0,3.646,0,5.47c-16.516,1.946-30.819-6.781-46.297-9.871
	c-3.737-0.746-6.549-4.743-6.535-9.854c0.137-47.703,0.101-95.408,0.063-143.113c-0.006-7.107,5.016-8.912,10.452-10.362
	c10.528-2.807,21.246-4.957,31.378-9.123C255.034,57.149,263.541,52.292,261.352,63.476z"/>
<path fill-rule="evenodd" clip-rule="evenodd" fill="#4AA1FD" d="M261.352,169.222c-3.217,2.246-6.873,1.633-10.468,1.758
	c-4.343,0.15-8.899-1.075-8.815-5.437c0.074-3.817-1.03-9.436,5.491-11.383c4.907-1.465,9.265-2.054,13.792,0.476
	C261.352,159.498,261.352,164.361,261.352,169.222z"/>
<path fill-rule="evenodd" clip-rule="evenodd" fill="#4AA1FD" d="M130.106,165.577c0.101-5.339-4.279-6.31-7.866-7.206
	c-4.922-1.228-7.72-4.911-8.002-8.804c-0.563-7.796-3.182-15.337-2.505-23.285c0.256-3.02,1.254-5.204,3.508-6.958
	c3.224-2.511,10.384-2.39,6.42-9.763c-0.194-0.361,1.585-2.577,2.282-2.498c7.14,0.814,12.607-5.397,19.257-4.774
	c2.923,0.274,4.879,0.784,7.07-1.386c0.707-0.702,2.935-1.159,3.264-0.753c3.983,4.916,9.616,6.434,15.104,8.911
	c6.138,2.77,6.269,10.079,7.052,16.538c1.796,14.813,4.089,29.58,6.694,44.274c1.39,7.84-1.604,11.841-8.896,13.875
	c-23.121,6.453-19.907,4.623-23.304-16.994c-2.712-17.254-5.245-34.536-9.918-51.528c1.652,11.724,3.239,23.457,4.979,35.167
	c1.497,10.063,3.262,20.087,4.733,30.153c0.878,6.016-1.112,9.941-7.939,10.521c-3.846,0.327-7.915,0.88-11.353,2.475
	c-4.686,2.174-6.188-1.543-8.011-3.739c-2.824-3.401,1.522-4.775,3.115-5.922c7.042-5.062,8.131-11.084,4.201-18.449
	C129.991,165.431,130.106,165.577,130.106,165.577z M172.546,170.035c-2.435-17.509-4.45-32.635-6.691-47.726
	c-0.635-4.279-2.774-7.045-7.932-5.89c-5.225,1.171-6.707,4.381-5.918,9.235c2.393,14.715,4.787,29.431,7.16,44.149
	c0.478,2.967-1.061,7.64,4.553,6.584C168.266,175.532,173.92,174.96,172.546,170.035z M137.942,160.28
	c-1.618-12.106-2.796-22.448-4.465-32.71c-0.717-4.408-4.551-4.673-7.823-3.387c-2.865,1.125-7.671,0.798-6.391,6.6
	c1.996,9.049,1.476,19.249,12.825,23.235C133.799,154.619,134.906,156.939,137.942,160.28z"/>
<path fill-rule="evenodd" clip-rule="evenodd" fill="#4AA1FD" d="M241.291,114.917c-1.142,3.422-1.367,8.12-6.817,8.638
	c-4.171,0.396-5.642-2.02-5.956-6.025c-0.547-6.969,4.607-6.457,8.848-7.276C240.831,109.585,241.033,112.008,241.291,114.917z"/>
<path fill-rule="evenodd" clip-rule="evenodd" fill="#FDFDFD" d="M111.171,166.639c-4.845-0.455-7.815,2.768-11.633,6.158
	c-0.404-9.326-3.651-17.193-1.756-26.609C101.093,154.069,104.843,160.802,111.171,166.639z"/>
<path fill-rule="evenodd" clip-rule="evenodd" fill="#FDFDFD" d="M101.152,201.937c0-4.992,0-8.854,0-11.17
	c4.989,4.312,10.812,9.344,16.635,14.377C111.683,204.61,108.635,196.241,101.152,201.937z"/>
<path fill-rule="evenodd" clip-rule="evenodd" fill="#FEFEFE" d="M172.546,170.035c1.374,4.925-4.28,5.497-8.829,6.353
	c-5.614,1.056-4.075-3.617-4.553-6.584c-2.373-14.718-4.767-29.434-7.16-44.149c-0.789-4.854,0.694-8.064,5.918-9.235
	c5.158-1.156,7.297,1.61,7.932,5.89C168.096,137.4,170.111,152.526,172.546,170.035z"/>
<path fill-rule="evenodd" clip-rule="evenodd" fill="#FDFDFD" d="M137.942,160.28c-3.037-3.341-4.144-5.661-5.854-6.262
	c-11.349-3.987-10.829-14.186-12.825-23.235c-1.28-5.801,3.525-5.474,6.391-6.6c3.272-1.287,7.106-1.021,7.823,3.387
	C135.146,137.832,136.325,148.173,137.942,160.28z"/>
<g>
	<path d="M54.404,261.231h5.353c3.937,0,6.745,1.345,6.745,5.329c0,3.864-2.808,5.641-6.648,5.641h-2.665v6.696h-2.784V261.231z
		 M59.589,269.969c2.832,0,4.176-1.08,4.176-3.408s-1.464-3.097-4.272-3.097h-2.304v6.505H59.589z"/>
	<path d="M67.844,275.394c0-2.833,2.4-4.297,7.896-4.896c-0.024-1.536-0.576-2.881-2.52-2.881c-1.392,0-2.688,0.624-3.816,1.345
		l-1.032-1.872c1.368-0.864,3.216-1.729,5.329-1.729c3.288,0,4.8,2.088,4.8,5.593v7.944h-2.256l-0.24-1.512h-0.072
		c-1.2,1.031-2.616,1.824-4.2,1.824C69.452,279.21,67.844,277.722,67.844,275.394z M75.741,275.489v-3.24
		c-3.912,0.479-5.232,1.464-5.232,2.952c0,1.296,0.888,1.824,2.064,1.824C73.725,277.025,74.661,276.474,75.741,275.489z"/>
	<path d="M81.476,272.321c0-4.417,3.048-6.961,6.528-6.961c1.68,0,2.904,0.672,3.864,1.512l-1.368,1.801
		c-0.72-0.648-1.464-1.032-2.376-1.032c-2.208,0-3.792,1.872-3.792,4.681c0,2.784,1.512,4.632,3.72,4.632
		c1.104,0,2.088-0.528,2.88-1.2l1.128,1.824c-1.2,1.08-2.76,1.633-4.272,1.633C84.212,279.21,81.476,276.689,81.476,272.321z"/>
	<path d="M94.82,259.768h2.688v12.337h0.072l5.184-6.408h3.048l-4.488,5.353l4.992,7.849h-3l-3.576-5.977l-2.232,2.568v3.408H94.82
		V259.768z"/>
	<path d="M117.021,273.857h-6.145l-1.512,5.04h-2.832l5.856-17.666h3.216l5.856,17.666h-2.952L117.021,273.857z M116.349,271.673
		l-0.696-2.376c-0.6-1.921-1.128-3.889-1.68-5.881h-0.096c-0.504,2.017-1.056,3.96-1.632,5.881l-0.72,2.376H116.349z"/>
	<path d="M123.236,274.001v-8.305h2.76v7.969c0,2.28,0.648,3.168,2.208,3.168c1.224,0,2.064-0.576,3.168-1.968v-9.169h2.76v13.201
		h-2.256l-0.216-1.992h-0.072c-1.2,1.393-2.496,2.305-4.32,2.305C124.46,279.21,123.236,277.361,123.236,274.001z"/>
	<path d="M137.396,272.321c0-4.297,2.712-6.961,5.665-6.961c1.512,0,2.472,0.576,3.552,1.488l-0.12-2.185v-4.896h2.76v19.13h-2.256
		l-0.24-1.488h-0.072c-0.984,1.008-2.352,1.801-3.84,1.801C139.532,279.21,137.396,276.689,137.396,272.321z M146.493,275.321
		v-6.457c-0.984-0.888-1.92-1.2-2.904-1.2c-1.848,0-3.336,1.753-3.336,4.608c0,3.001,1.176,4.657,3.241,4.657
		C144.597,276.93,145.533,276.425,146.493,275.321z"/>
	<path d="M153.019,261.592c0-0.984,0.744-1.632,1.752-1.632c1.008,0,1.776,0.647,1.776,1.632c0,0.96-0.768,1.632-1.776,1.632
		C153.763,263.224,153.019,262.552,153.019,261.592z M153.403,265.696h2.736v13.201h-2.736V265.696z"/>
	<path d="M159.355,272.321c0-4.417,2.952-6.961,6.216-6.961s6.216,2.544,6.216,6.961c0,4.368-2.952,6.889-6.216,6.889
		S159.355,276.689,159.355,272.321z M168.956,272.321c0-2.809-1.296-4.681-3.384-4.681c-2.064,0-3.36,1.872-3.36,4.681
		c0,2.784,1.296,4.632,3.36,4.632C167.66,276.953,168.956,275.105,168.956,272.321z"/>
	<path d="M180.787,258.664h1.848v26.978h-1.848V258.664z"/>
	<path d="M195.93,275.945c-0.6,1.44-1.631,3.024-2.543,4.008c-0.361-0.336-1.129-0.912-1.561-1.199
		c0.889-0.889,1.729-2.161,2.232-3.337L195.93,275.945z M204.836,269.32h-12.961v-1.752h5.447c-0.119-0.336-0.287-0.647-0.455-0.912
		l1.92-0.408h-5.785V259.6h11.018v6.648h-5.018c0.24,0.385,0.529,0.864,0.721,1.32h5.113V269.32z M199.482,275.058v3.576
		c0,0.983-0.168,1.464-0.84,1.752s-1.607,0.312-2.904,0.312c-0.096-0.576-0.385-1.319-0.672-1.824
		c0.863,0.024,1.68,0.024,1.896,0.024c0.264,0,0.336-0.072,0.336-0.288v-3.552h-4.033v-4.729h10.441v4.729H199.482z
		 M195.115,262.216h6.695v-1.176h-6.695V262.216z M195.115,264.809h6.695v-1.225h-6.695V264.809z M195.354,273.545h6.193v-1.68
		h-6.193V273.545z M213.523,273.185c-1.824,3.145-4.824,5.761-8.041,7.441c-0.311-0.528-0.959-1.225-1.463-1.656l-1.609,0.792
		c-0.359-0.984-1.271-2.544-2.039-3.696l1.584-0.696c0.768,1.104,1.68,2.544,2.111,3.48c2.93-1.393,5.857-3.744,7.369-6.433
		L213.523,273.185z M212.42,260.08c-1.633,2.184-4.057,4.296-6.289,5.664c-0.359-0.456-1.031-1.128-1.584-1.536
		c2.041-1.152,4.465-3.096,5.762-4.992L212.42,260.08z M213.043,266.513c-1.727,2.352-4.439,4.561-6.912,6
		c-0.359-0.504-1.008-1.176-1.535-1.584c2.279-1.2,4.969-3.24,6.408-5.28L213.043,266.513z"/>
	<path d="M237.115,266.345v1.992h-21.24v-1.992h5.639c-0.215-0.912-0.695-2.112-1.223-3.024l2.184-0.456
		c0.672,1.032,1.248,2.472,1.439,3.408l-0.311,0.072h5.471c0.529-1.009,1.129-2.473,1.441-3.528h-13.297v-1.992h8.328
		c-0.191-0.624-0.504-1.32-0.84-1.872l2.279-0.385c0.457,0.648,0.84,1.536,1.08,2.257h7.922v1.992h-5.232l2.256,0.504
		c-0.504,1.032-1.008,2.136-1.512,3.024H237.115z M218.994,270.185h15.217v10.585h-2.328v-0.816h-10.656v0.864h-2.232V270.185z
		 M221.227,272.033v2.088h10.656v-2.088H221.227z M231.883,278.081v-2.208h-10.656v2.208H231.883z"/>
	<path d="M256.748,278.201c2.039,0,2.352-0.479,2.615-2.856c0.576,0.36,1.512,0.696,2.16,0.816
		c-0.408,3.217-1.248,4.129-4.656,4.129h-8.496c-4.008,0-5.186-0.721-5.186-3.697v-10.057c-0.646,0.696-1.344,1.345-2.016,1.921
		c-0.385-0.433-1.295-1.297-1.848-1.681c2.615-1.872,4.969-4.92,6.336-8.112l2.256,0.647c-0.383,0.889-0.814,1.776-1.32,2.616
		h12.938c0,0-0.023,0.696-0.023,0.984c-0.264,7.729-0.48,10.537-1.152,11.401c-0.455,0.647-0.912,0.84-1.607,0.936
		c-0.625,0.072-1.656,0.072-2.762,0.024c-0.023-0.624-0.264-1.536-0.574-2.112c0.936,0.096,1.799,0.12,2.207,0.096
		c0.313,0.024,0.553-0.048,0.768-0.336c0.385-0.528,0.625-2.809,0.842-8.881h-12.025c-0.529,0.744-1.105,1.488-1.682,2.137h9.553
		v7.32h-7.68v3.096c0,1.32,0.408,1.608,2.928,1.608H256.748z M245.395,268.145v3.336h5.496v-3.336H245.395z"/>
	<path d="M282.645,274.865c-0.912,0.647-1.992,1.248-3.025,1.776c1.705,0.912,3.744,1.56,5.977,1.896
		c-0.432,0.433-0.959,1.2-1.248,1.753c-4.344-0.889-7.92-2.929-10.057-5.953c-0.936,0.552-2.016,1.104-3.168,1.584v2.28l3.721-0.888
		c-0.025,0.552,0.023,1.296,0.096,1.728c-4.752,1.225-5.496,1.44-5.953,1.729c-0.145-0.432-0.6-1.224-0.863-1.56
		c0.359-0.24,0.84-0.769,0.84-1.801v-0.672c-1.416,0.456-2.881,0.888-4.346,1.248c-0.238-0.456-0.84-1.224-1.199-1.608
		c4.201-0.936,8.328-2.352,10.584-4.104h-0.646v-1.536h-9.242v-1.56h9.242v-0.864h-6.816v-5.593h15.938v5.593h-6.889v0.864h9.313
		v1.56h-9.313v1.536h-0.938l1.514,0.721c-0.145,0.12-0.289,0.24-0.434,0.359c0.602,0.841,1.393,1.633,2.305,2.305
		c1.104-0.6,2.281-1.368,3.049-1.968L282.645,274.865z M284.779,261.88h-20.594v-1.632h9.338c-0.168-0.408-0.385-0.816-0.553-1.177
		l2.064-0.407c0.287,0.479,0.576,1.08,0.791,1.584h8.953V261.88z M272.131,271.433c-1.584,1.104-4.465,2.064-6.793,2.568
		c-0.191-0.336-0.672-1.032-1.008-1.344c2.279-0.36,4.945-0.984,6.336-1.801L272.131,271.433z M268.65,264.952h4.705v-1.056h-4.705
		V264.952z M273.355,267.137v-1.057h-4.705v1.057H273.355z M280.244,263.896h-4.656v1.056h4.656V263.896z M280.244,266.08h-4.656
		v1.057h4.656V266.08z M283.867,274.121c-1.631-0.769-4.775-1.776-7.225-2.353l0.84-1.032c2.377,0.48,5.568,1.417,7.25,2.185
		L283.867,274.121z"/>
</g>
<g>
	<circle fill-rule="evenodd" clip-rule="evenodd" fill="#4AA1FD" cx="89" cy="108" r="15.341"/>
	<circle fill-rule="evenodd" clip-rule="evenodd" fill="#FFFFFF" cx="89" cy="108" r="10.416"/>
</g>
</svg>
