<?xml version="1.0" encoding="utf-8"?>
<!-- Generator: Adobe Illustrator 16.0.0, SVG Export Plug-In . SVG Version: 6.00 Build 0)  -->
<!DOCTYPE svg PUBLIC "-//W3C//DTD SVG 1.1//EN" "http://www.w3.org/Graphics/SVG/1.1/DTD/svg11.dtd">
<svg version="1.1" id="圖層_1" xmlns="http://www.w3.org/2000/svg" xmlns:xlink="http://www.w3.org/1999/xlink" x="0px" y="0px"
	 width="340px" height="340px" viewBox="0 0 340 340" enable-background="new 0 0 340 340" xml:space="preserve">
<rect y="0" fill="#C2D559" width="340" height="340"/>
<path fill="#FFFFFF" d="M320,296.316c0,13.08-11.352,23.685-25.352,23.685H45.352C31.351,320,20,309.396,20,296.316V43.684
	C20,30.604,31.351,20,45.352,20h249.296c14,0,25.352,10.604,25.352,23.684V296.316z"/>
<g>
	<polyline fill="none" stroke="#000000" stroke-miterlimit="10" points="124.5,74 124.5,218.5 57.75,236.5 	"/>
	<line fill="none" stroke="#000000" stroke-miterlimit="10" x1="124.833" y1="218.5" x2="282.333" y2="265.75"/>
</g>
<polygon opacity="0.7" fill="#8BCCC9" enable-background="new    " points="96.333,112.25 58.083,236.25 196.333,257.75 
	239.833,237 "/>
<polygon opacity="0.7" fill="#FFFF81" enable-background="new    " points="96.333,112.25 104.083,98.75 217.583,177 276.583,252 
	239.833,237 "/>
<polygon opacity="0.7" fill="#CEE69B" enable-background="new    " points="104.083,98.75 125.333,73 216.775,176.444 "/>
<polygon opacity="0.7" fill="#F97D7D" enable-background="new    " points="196.333,257.75 282.333,265.75 276.583,252 239.833,237 
	"/>
<circle cx="125.5" cy="74" r="1.5"/>
<circle cx="104.5" cy="99" r="1.5"/>
<circle cx="96.5" cy="112" r="1.5"/>
<circle cx="58.5" cy="236" r="1.5"/>
<circle cx="197.5" cy="258" r="1.5"/>
<circle cx="239.5" cy="237" r="1.5"/>
<circle cx="276.5" cy="252" r="1.5"/>
<circle cx="281.5" cy="266" r="1.5"/>
<circle cx="217.5" cy="177" r="1.5"/>
</svg>
