<?xml version="1.0" encoding="utf-8"?>
<!-- Generator: Adobe Illustrator 16.0.0, SVG Export Plug-In . SVG Version: 6.00 Build 0)  -->
<!DOCTYPE svg PUBLIC "-//W3C//DTD SVG 1.1//EN" "http://www.w3.org/Graphics/SVG/1.1/DTD/svg11.dtd">
<svg version="1.1" id="圖層_1" xmlns="http://www.w3.org/2000/svg" xmlns:xlink="http://www.w3.org/1999/xlink" x="0px" y="0px"
	 width="50px" height="50px" viewBox="0 0 50 50" enable-background="new 0 0 50 50" xml:space="preserve">
<g>
	<path fill-rule="evenodd" clip-rule="evenodd" fill="#8AB92D" d="M1.055,41.74c0-11.161,0-22.325,0-33.486
		c0.2-0.162,0.166-0.416,0.232-0.626c0.728-2.31,2.763-3.758,5.32-3.759c12.261-0.002,24.521-0.001,36.783,0
		c0.171,0,0.343,0.002,0.514,0.012c2.248,0.136,4.133,1.611,4.808,3.745c0.076,0.241,0.046,0.518,0.233,0.722
		c0,11.131,0,22.263,0,33.393c-0.203,0.18-0.173,0.447-0.245,0.673c-0.752,2.304-2.755,3.719-5.302,3.719
		c-12.266,0.001-24.531,0.001-36.798,0c-0.14,0-0.28-0.001-0.421-0.006c-2.351-0.085-4.352-1.7-4.953-3.982
		C1.191,42.007,1.222,41.826,1.055,41.74z M25,16.539c-7.294,0-14.588,0.003-21.882-0.009c-0.378-0.001-0.487,0.072-0.487,0.472
		c0.014,7.84,0.009,15.68,0.011,23.52c0,2.465,1.562,4.022,4.03,4.022c12.219,0.002,24.438,0.002,36.658,0
		c2.469,0,4.028-1.558,4.029-4.022c0.001-7.84-0.003-15.68,0.011-23.52c0.001-0.4-0.108-0.473-0.486-0.472
		C39.589,16.542,32.294,16.539,25,16.539z M24.987,14.96c7.294,0,14.589-0.003,21.884,0.008c0.369,0,0.506-0.059,0.499-0.47
		c-0.025-1.698-0.007-3.398-0.012-5.097c-0.007-2.362-1.593-3.947-3.968-3.947c-12.267-0.003-24.534-0.003-36.801,0
		c-2.366,0-3.942,1.594-3.948,3.967c-0.004,1.684,0.018,3.368-0.013,5.05c-0.008,0.436,0.13,0.498,0.52,0.497
		C10.428,14.957,17.707,14.96,24.987,14.96z"/>
	<path fill-rule="evenodd" clip-rule="evenodd" fill="#8AB92D" d="M27.149,22.125c-0.19,0.901-0.404,1.903-0.614,2.907
		c-0.826,3.924-1.649,7.849-2.475,11.773c-0.029,0.137-0.054,0.274-0.092,0.409c-0.129,0.468-0.528,0.743-0.931,0.647
		c-0.453-0.106-0.708-0.504-0.608-0.999c0.229-1.143,0.471-2.282,0.712-3.423c0.805-3.817,1.611-7.634,2.419-11.451
		c0.124-0.592,0.481-0.897,0.945-0.815C26.897,21.243,27.161,21.586,27.149,22.125z"/>
	<path fill-rule="evenodd" clip-rule="evenodd" fill="#8AB92D" d="M20.721,25.048c0.007,0.405-0.198,0.612-0.429,0.809
		c-1.305,1.109-2.602,2.229-3.918,3.324c-0.28,0.234-0.28,0.338,0.003,0.572c1.295,1.073,2.568,2.173,3.85,3.262
		c0.167,0.142,0.351,0.276,0.431,0.482c0.126,0.329,0.097,0.646-0.187,0.894c-0.273,0.238-0.588,0.305-0.9,0.104
		c-0.261-0.167-0.493-0.379-0.729-0.58c-1.436-1.22-2.87-2.442-4.304-3.664c-0.642-0.548-0.658-1.003-0.031-1.541
		c1.597-1.369,3.197-2.732,4.802-4.09c0.518-0.438,1.085-0.368,1.332,0.144C20.692,24.873,20.708,24.999,20.721,25.048z"/>
	<path fill-rule="evenodd" clip-rule="evenodd" fill="#8AB92D" d="M35.943,29.486c-0.012,0.286-0.164,0.497-0.371,0.673
		c-1.637,1.395-3.271,2.79-4.91,4.179c-0.433,0.366-0.886,0.353-1.202-0.006c-0.301-0.34-0.245-0.835,0.173-1.192
		c1.334-1.146,2.673-2.289,4.023-3.417c0.245-0.203,0.251-0.303,0.006-0.509c-1.302-1.089-2.589-2.195-3.881-3.296
		c-0.105-0.092-0.214-0.183-0.304-0.289c-0.265-0.314-0.27-0.729-0.023-1.023c0.246-0.295,0.7-0.404,1.008-0.146
		c1.769,1.479,3.517,2.978,5.267,4.477C35.886,29.071,35.951,29.271,35.943,29.486z"/>
	<path fill-rule="evenodd" clip-rule="evenodd" fill="#8AB92D" d="M4.385,10.223c0.001-1.372,1.128-2.501,2.495-2.5
		c1.355,0.001,2.5,1.149,2.497,2.506s-1.15,2.504-2.503,2.502C5.51,12.729,4.383,11.594,4.385,10.223z M6.882,9.309
		c-0.489-0.003-0.916,0.428-0.914,0.922c0.003,0.495,0.438,0.925,0.925,0.914c0.465-0.01,0.885-0.432,0.896-0.9
		C7.799,9.756,7.368,9.312,6.882,9.309z"/>
	<path fill-rule="evenodd" clip-rule="evenodd" fill="#8AB92D" d="M12.074,10.264C12.068,8.882,13.168,7.77,14.55,7.76
		c1.378-0.009,2.5,1.1,2.507,2.476c0.007,1.376-1.107,2.504-2.479,2.511C13.202,12.752,12.081,11.641,12.074,10.264z M13.667,10.187
		c-0.031,0.521,0.334,0.94,0.845,0.969c0.506,0.029,0.937-0.36,0.957-0.865c0.02-0.494-0.34-0.899-0.831-0.936
		C14.12,9.316,13.697,9.679,13.667,10.187z"/>
	<path fill-rule="evenodd" clip-rule="evenodd" fill="#8AB92D" d="M24.743,10.261c0.007,1.379-1.097,2.495-2.477,2.502
		c-1.38,0.008-2.501-1.098-2.508-2.475c-0.006-1.376,1.106-2.501,2.479-2.508C23.613,7.774,24.735,8.886,24.743,10.261z
		 M22.268,11.177c0.51-0.008,0.906-0.428,0.887-0.939c-0.018-0.489-0.428-0.877-0.917-0.87c-0.506,0.007-0.91,0.437-0.889,0.946
		C21.367,10.806,21.771,11.185,22.268,11.177z"/>
</g>
</svg>
