<?xml version="1.0" encoding="utf-8"?>
<!-- Generator: Adobe Illustrator 16.0.0, SVG Export Plug-In . SVG Version: 6.00 Build 0)  -->
<!DOCTYPE svg PUBLIC "-//W3C//DTD SVG 1.1//EN" "http://www.w3.org/Graphics/SVG/1.1/DTD/svg11.dtd">
<svg version="1.1" id="圖層_1" xmlns="http://www.w3.org/2000/svg" xmlns:xlink="http://www.w3.org/1999/xlink" x="0px" y="0px"
	 width="50px" height="50px" viewBox="0 0 50 50" enable-background="new 0 0 50 50" xml:space="preserve">
<g>
	<path fill-rule="evenodd" clip-rule="evenodd" fill="#8AB92D" d="M22.79,36.576c0,3.178,0.001,6.356,0,9.533
		c0,1.021-0.372,1.392-1.378,1.388c-9.925-0.03-18.739-7.576-20.209-17.406c-0.989-6.616,0.78-12.462,5.245-17.469
		c0.14-0.157,0.287-0.309,0.437-0.456c0.608-0.598,1.184-0.603,1.793,0.005c2.643,2.637,5.28,5.279,7.92,7.918
		c1.936,1.936,3.871,3.87,5.813,5.799c0.314,0.311,0.387,0.678,0.387,1.095c-0.006,3.198-0.004,6.395-0.004,9.593
		C22.792,36.576,22.791,36.576,22.79,36.576z M20.619,28.237c-1.03,0.354-1.968,0.674-2.904,0.995
		c-4.245,1.457-8.487,2.923-12.738,4.361c-0.45,0.152-0.513,0.322-0.297,0.711c0.324,0.584,0.63,1.18,0.921,1.781
		c0.154,0.316,0.329,0.37,0.667,0.251c1.441-0.509,2.893-0.985,4.34-1.473c3.186-1.071,6.372-2.144,9.558-3.215
		c0.226-0.077,0.471-0.091,0.462-0.457C20.603,30.238,20.619,29.282,20.619,28.237z M3.217,29.212
		c0.141,0.693,0.293,1.384,0.417,2.079c0.069,0.391,0.239,0.42,0.583,0.293c0.932-0.345,1.877-0.65,2.816-0.975
		c4.069-1.406,8.135-2.82,12.21-4.208c0.464-0.157,0.385-0.275,0.111-0.531c-0.5-0.471-1.002-0.941-1.476-1.438
		c-0.246-0.258-0.457-0.297-0.799-0.179c-2.454,0.851-4.916,1.673-7.375,2.505c-2.007,0.679-4.016,1.354-6.02,2.042
		C3.496,28.863,3.176,28.84,3.217,29.212z M15.865,22.386c-0.935-0.92-1.798-1.759-2.645-2.612c-0.168-0.17-0.306-0.154-0.505-0.086
		c-2.958,1.024-5.918,2.041-8.879,3.057c-0.189,0.065-0.326,0.135-0.372,0.368c-0.232,1.165-0.348,2.34-0.359,3.588
		C7.348,25.265,11.548,23.845,15.865,22.386z M7.157,38.318c0.618,0.806,1.291,1.482,1.983,2.141
		c0.165,0.156,0.309,0.151,0.513,0.079c3.55-1.252,7.103-2.496,10.657-3.736c0.233-0.081,0.323-0.2,0.315-0.454
		c-0.019-0.65-0.037-1.304,0.004-1.952c0.032-0.499-0.066-0.61-0.574-0.435c-2.854,0.983-5.72,1.934-8.582,2.897
		C10.046,37.339,8.62,37.823,7.157,38.318z M11.405,42.22c1.322,0.888,2.625,1.518,3.992,2.022c0.19,0.07,0.366,0.07,0.557,0.004
		c1.445-0.501,2.891-0.998,4.338-1.49c0.222-0.075,0.338-0.171,0.334-0.439c-0.018-1.09-0.007-2.18-0.007-3.332
		C17.552,40.062,14.532,41.122,11.405,42.22z M11.339,17.869c-0.773-0.762-1.498-1.418-2.151-2.14
		c-0.375-0.415-0.709-0.542-1.216-0.277c-0.487,0.254-1.171,0.214-1.503,0.645c-0.956,1.239-1.643,2.64-2.208,4.209
		C6.639,19.487,8.923,18.7,11.339,17.869z M19.954,45.25c0.227,0.002,0.447,0.151,0.649-0.063c0.025-0.027,0.014-0.142-0.01-0.154
		c-0.231-0.112-0.406,0.085-0.611,0.125C19.973,45.159,19.971,45.188,19.954,45.25z"/>
	<path fill-rule="evenodd" clip-rule="evenodd" fill="#8AB92D" d="M24.647,36.402c0-3.54-0.005-7.08,0.009-10.621
		c0.001-0.326-0.125-0.523-0.338-0.736c-4.921-4.903-9.836-9.812-14.753-14.72c-0.76-0.758-0.768-1.3,0.011-2.042
		c4.125-3.93,9.016-6.18,14.716-6.51c7.372-0.427,13.62,2.098,18.659,7.477c3.377,3.605,5.378,7.917,5.936,12.833
		c0.871,7.693-1.463,14.307-7.005,19.717c-3.685,3.597-8.15,5.662-13.268,6.282c-0.853,0.104-1.714,0.157-2.573,0.188
		c-0.932,0.034-1.369-0.415-1.37-1.359c-0.004-3.503-0.002-7.006-0.002-10.509C24.662,36.402,24.655,36.402,24.647,36.402z
		 M26.94,35.268c-0.004,0-0.007,0-0.011,0c0,3.388,0.011,6.777-0.011,10.166c-0.003,0.505,0.141,0.625,0.616,0.526
		c0.447-0.093,0.911-0.103,1.364-0.173c5.241-0.805,9.638-3.2,13.001-7.284c4.615-5.604,5.992-12.012,4.195-19.044
		C43.894,10.843,35.842,4.346,26.958,3.966C21.369,3.728,16.412,5.4,12.111,8.994c-0.299,0.251-0.349,0.388-0.042,0.692
		c2.126,2.097,4.232,4.215,6.342,6.329c2.637,2.642,5.266,5.291,7.911,7.924c0.431,0.429,0.642,0.869,0.635,1.507
		C26.921,28.719,26.94,31.993,26.94,35.268z"/>
</g>
</svg>
