<?xml version="1.0" encoding="utf-8"?>
<!-- Generator: Adobe Illustrator 16.0.0, SVG Export Plug-In . SVG Version: 6.00 Build 0)  -->
<!DOCTYPE svg PUBLIC "-//W3C//DTD SVG 1.1//EN" "http://www.w3.org/Graphics/SVG/1.1/DTD/svg11.dtd">
<svg version="1.1" id="圖層_1" xmlns="http://www.w3.org/2000/svg" xmlns:xlink="http://www.w3.org/1999/xlink" x="0px" y="0px"
	 width="50px" height="50px" viewBox="0 0 50 50" enable-background="new 0 0 50 50" xml:space="preserve">
<rect fill="#35363A" width="50" height="50"/>
<g>
	<path fill="#FFFFFF" d="M22.517,32.817c0-2.979,0.024-5.967-0.014-8.95c-0.014-1.063,0.262-1.492,1.441-1.294
		c2.279,0.378,3.632,1.917,3.649,4.534c0.025,4.516,0.015,9.033-0.022,13.549c-0.02,2.445-0.059,2.445-2.545,2.451
		c-2.485,0.006-2.486,0.006-2.486-2.459c0-2.61,0-5.222,0-7.83C22.532,32.817,22.524,32.817,22.517,32.817z"/>
	<path fill="#FFFFFF" d="M2.56,6.822c-1.063-0.009-1.492,0.19-1.297,1.045c0.379,1.655,1.918,2.636,4.535,2.646
		c4.516,0.019-1.182,0.01,3.335-0.017c2.444-0.015,2.943-0.042,2.947-1.846c0.007-1.803-0.491-1.803-2.955-1.804"/>
	<path fill="#72EFDD" d="M13.458,21.606c0-4.481,0.027-8.964-0.02-13.445c-0.012-1.198,0.386-1.556,1.598-1.525
		c3.482,0.082,6.97,0.054,10.457-0.002c1.152-0.019,1.65,0.311,1.59,1.545c-0.122,2.523,0.421,2.382-2.421,2.397
		c-0.951,0.004-1.92-0.16-2.853,0.099c-2.039,0.569-3.285,2.249-3.289,4.439c-0.012,5.52-0.004,11.04,0.004,16.56
		c0,2.737-1.408,4.461-3.746,4.683c-0.963,0.09-1.336-0.144-1.325-1.183c0.047-4.521,0.021-9.043,0.021-13.57
		C13.468,21.606,13.463,21.606,13.458,21.606z"/>
	<path fill="#72EFDD" d="M28.276,17.987c0,0,9.244,0,11.869,2.459c1.854,1.738,2.426,2.445,2.899,6.732
		c0.476,4.284-1.522,8.578-4.271,9.739s-4.58,1.212-6.435,4.326c-1.854,3.113,3.511,2.004,5.536,1.591
		c2.025-0.411,9.279-2.784,10.639-11.577c1.358-8.795-2.625-13.676-7.576-16.372c-4.948-2.694-14.646-1.36-16.119-1.52
		c-1.471-0.161-2.144,0.069-2.176,2.971c0,0-0.102,1.322,0.358,1.651C23.463,18.319,28.276,17.987,28.276,17.987z"/>
</g>
</svg>
