<?xml version="1.0" encoding="utf-8"?>
<!-- Generator: Adobe Illustrator 16.0.0, SVG Export Plug-In . SVG Version: 6.00 Build 0)  -->
<!DOCTYPE svg PUBLIC "-//W3C//DTD SVG 1.1//EN" "http://www.w3.org/Graphics/SVG/1.1/DTD/svg11.dtd">
<svg version="1.1" id="圖層_1" xmlns="http://www.w3.org/2000/svg" xmlns:xlink="http://www.w3.org/1999/xlink" x="0px" y="0px"
	 width="159px" height="30px" viewBox="0 0 159 30" enable-background="new 0 0 159 30" xml:space="preserve">
<path fill="#FFFFFF" d="M18.764,20.341c0-2.022,0.017-4.049-0.009-6.074c-0.009-0.721,0.177-1.012,0.978-0.878
	c1.547,0.257,2.465,1.301,2.476,3.077c0.018,3.063,0.01,6.13-0.014,9.193c-0.014,1.659-0.04,1.659-1.728,1.663
	c-1.686,0.005-1.687,0.005-1.687-1.668c0-1.771,0-3.543,0-5.313C18.774,20.341,18.769,20.341,18.764,20.341z"/>
<path fill="#FFFFFF" d="M5.22,2.7C4.499,2.694,4.208,2.829,4.341,3.409c0.257,1.123,1.301,1.789,3.077,1.796
	c3.064,0.013-0.802,0.007,2.263-0.011c1.659-0.01,1.997-0.029,2-1.253c0.005-1.223-0.333-1.223-2.005-1.224"/>
<path fill="#72EFDD" d="M12.616,12.733c0-3.041,0.019-6.083-0.013-9.124c-0.008-0.813,0.262-1.056,1.084-1.035
	c2.364,0.056,4.73,0.037,7.096-0.001c0.782-0.013,1.121,0.21,1.08,1.048c-0.083,1.712,0.285,1.617-1.644,1.627
	c-0.645,0.003-1.303-0.109-1.935,0.067c-1.383,0.386-2.23,1.526-2.232,3.012c-0.008,3.746-0.003,7.491,0.002,11.237
	c0.001,1.858-0.955,3.028-2.542,3.178c-0.653,0.061-0.906-0.098-0.899-0.803c0.032-3.068,0.014-6.137,0.014-9.208
	C12.623,12.733,12.62,12.733,12.616,12.733z"/>
<path fill="#72EFDD" d="M22.672,10.277c0,0,6.274,0,8.055,1.669c1.258,1.179,1.646,1.659,1.968,4.568
	c0.322,2.907-1.034,5.821-2.898,6.609c-1.864,0.788-3.107,0.822-4.366,2.936c-1.259,2.113,2.382,1.36,3.757,1.08
	c1.375-0.279,6.297-1.89,7.219-7.857c0.922-5.968-1.782-9.28-5.141-11.109S21.327,7.25,20.328,7.141s-1.455,0.047-1.477,2.016
	c0,0-0.069,0.897,0.243,1.121C19.406,10.502,22.672,10.277,22.672,10.277z"/>
<g>
	<path fill="#FFFFFF" d="M47.285,9.105H43.54V6.891h10.191v2.215H49.95v11.109h-2.665V9.105z"/>
	<path fill="#FFFFFF" d="M55.42,7.071c0-0.864,0.666-1.44,1.584-1.44c0.9,0,1.566,0.576,1.566,1.44c0,0.829-0.666,1.44-1.566,1.44
		C56.086,8.511,55.42,7.899,55.42,7.071z M55.672,10.132h2.629v10.083h-2.629V10.132z"/>
	<path fill="#FFFFFF" d="M60.568,15.191c0-3.295,2.053-5.312,4.231-5.312c1.134,0,1.836,0.432,2.557,1.098l-0.108-1.584V5.847h2.646
		v14.368h-2.143l-0.216-1.044h-0.054c-0.738,0.72-1.747,1.296-2.791,1.296C62.188,20.467,60.568,18.486,60.568,15.191z
		 M67.248,17.244v-4.43c-0.612-0.558-1.243-0.756-1.873-0.756c-1.134,0-2.089,1.08-2.089,3.097c0,2.089,0.756,3.133,2.089,3.133
		C66.078,18.288,66.672,18,67.248,17.244z"/>
	<path fill="#FFFFFF" d="M72.232,17.479c0-2.161,1.747-3.294,5.797-3.728c-0.036-0.99-0.468-1.747-1.71-1.747
		c-0.937,0-1.837,0.414-2.773,0.954l-0.954-1.747c1.188-0.738,2.629-1.332,4.213-1.332c2.558,0,3.871,1.53,3.871,4.447v5.888h-2.16
		l-0.198-1.08h-0.054c-0.883,0.757-1.891,1.332-3.043,1.332C73.42,20.467,72.232,19.188,72.232,17.479z M78.029,17.406v-2.035
		c-2.449,0.324-3.277,0.99-3.277,1.891c0,0.793,0.558,1.135,1.333,1.135C76.841,18.396,77.399,18.036,78.029,17.406z"/>
	<path fill="#FFFFFF" d="M82.743,15.191c0-3.367,2.323-5.312,4.844-5.312s4.845,1.944,4.845,5.312c0,3.331-2.324,5.275-4.845,5.275
		S82.743,18.521,82.743,15.191z M89.729,15.191c0-1.909-0.773-3.151-2.143-3.151s-2.143,1.242-2.143,3.151
		c0,1.891,0.773,3.116,2.143,3.116S89.729,17.082,89.729,15.191z"/>
	<path fill="#FFFFFF" d="M98.943,6.891h2.664v5.24h5.041v-5.24h2.646v13.324h-2.646v-5.762h-5.041v5.762h-2.664V6.891z"/>
	<path fill="#FFFFFF" d="M112.245,16.434v-6.302h2.646v5.96c0,1.566,0.434,2.105,1.404,2.105c0.829,0,1.369-0.359,2.053-1.26v-6.807
		h2.647v10.083h-2.161l-0.197-1.44h-0.072c-0.863,1.026-1.836,1.692-3.224,1.692C113.182,20.467,112.245,18.954,112.245,16.434z"/>
	<path fill="#FFFFFF" d="M123.314,17.479c0-2.161,1.746-3.294,5.797-3.728c-0.035-0.99-0.467-1.747-1.709-1.747
		c-0.938,0-1.838,0.414-2.773,0.954l-0.954-1.747c1.188-0.738,2.63-1.332,4.214-1.332c2.557,0,3.871,1.53,3.871,4.447v5.888h-2.16
		l-0.199-1.08h-0.053c-0.884,0.757-1.892,1.332-3.043,1.332C124.503,20.467,123.314,19.188,123.314,17.479z M129.111,17.406v-2.035
		c-2.447,0.324-3.275,0.99-3.275,1.891c0,0.793,0.559,1.135,1.332,1.135C127.924,18.396,128.482,18.036,129.111,17.406z"/>
	<path fill="#FFFFFF" d="M134.457,10.132h2.16l0.18,1.333h0.072c0.883-0.864,1.908-1.584,3.277-1.584
		c2.179,0,3.115,1.512,3.115,4.051v6.284h-2.648v-5.96c0-1.548-0.432-2.106-1.422-2.106c-0.828,0-1.351,0.396-2.106,1.134v6.932
		h-2.628V10.132z"/>
	<path fill="#FFFFFF" d="M145.328,21.997c0-0.847,0.521-1.565,1.439-2.088v-0.091c-0.521-0.342-0.918-0.864-0.918-1.692
		c0-0.756,0.522-1.458,1.116-1.89v-0.072c-0.684-0.504-1.332-1.459-1.332-2.629c0-2.376,1.927-3.655,4.069-3.655
		c0.559,0,1.098,0.108,1.512,0.252h3.639v1.944h-1.729c0.271,0.342,0.468,0.9,0.468,1.531c0,2.269-1.729,3.42-3.889,3.42
		c-0.396,0-0.864-0.09-1.297-0.233c-0.288,0.233-0.432,0.468-0.432,0.864c0,0.539,0.396,0.828,1.584,0.828h1.711
		c2.431,0,3.744,0.756,3.744,2.521c0,2.035-2.105,3.583-5.474,3.583C147.165,24.59,145.328,23.779,145.328,21.997z M152.494,21.457
		c0-0.721-0.594-0.9-1.674-0.9h-1.225c-0.613,0-1.045-0.054-1.404-0.144c-0.45,0.36-0.666,0.756-0.666,1.17
		c0,0.847,0.936,1.333,2.412,1.333C151.45,22.916,152.494,22.249,152.494,21.457z M151.271,13.535c0-1.188-0.666-1.854-1.566-1.854
		s-1.585,0.667-1.585,1.854c0,1.188,0.702,1.855,1.585,1.855C150.586,15.39,151.271,14.723,151.271,13.535z"/>
</g>
</svg>
