<?xml version="1.0" encoding="utf-8"?>
<!-- Generator: Adobe Illustrator 16.0.0, SVG Export Plug-In . SVG Version: 6.00 Build 0)  -->
<!DOCTYPE svg PUBLIC "-//W3C//DTD SVG 1.1//EN" "http://www.w3.org/Graphics/SVG/1.1/DTD/svg11.dtd">
<svg version="1.1" id="圖層_1" xmlns="http://www.w3.org/2000/svg" xmlns:xlink="http://www.w3.org/1999/xlink" x="0px" y="0px"
	 width="50px" height="50px" viewBox="0 0 50 50" enable-background="new 0 0 50 50" xml:space="preserve">
<g>
	<path fill-rule="evenodd" clip-rule="evenodd" fill="#8AB92D" d="M48.421,3.684c-0.231,0.456-0.187,0.963-0.256,1.445
		c-0.746,5.184-2.26,10.106-4.934,14.639c-1.578,2.674-3.559,5.015-5.93,7.017c-0.293,0.248-0.312,0.419-0.139,0.745
		c1.261,2.374,1.335,4.735-0.168,7.043c-0.84,1.29-1.996,2.254-3.313,3.022c-2.054,1.197-4.259,1.921-6.647,2.038
		c-0.464,0.023-0.854-0.096-1.056-0.549c-0.192-0.435-0.027-0.796,0.272-1.121c1.145-1.24,1.658-2.707,1.556-4.388
		c-0.037-0.6-0.232-0.725-0.789-0.498c-1.227,0.499-2.481,0.906-3.753,1.271c-0.527,0.15-1.047,0.211-1.57,0.041
		c-0.203-0.065-0.294-0.041-0.388,0.153c-1.143,2.379-3.155,3.611-5.611,4.28c-1.37,0.373-2.755,0.64-4.164,0.795
		c-0.725,0.08-1.228-0.351-1.155-1.052c0.221-2.142,0.649-4.234,1.513-6.224c0.706-1.625,1.899-2.77,3.439-3.581
		c0.242-0.128,0.379-0.214,0.263-0.538c-0.167-0.469-0.092-0.956,0.043-1.437c0.37-1.317,0.804-2.613,1.311-3.884
		c0.181-0.453,0.059-0.66-0.425-0.7c-1.52-0.125-2.893,0.262-4.095,1.215c-0.167,0.133-0.326,0.275-0.49,0.411
		c-0.319,0.265-0.669,0.361-1.057,0.171c-0.388-0.189-0.516-0.526-0.517-0.94c-0.001-0.921,0.152-1.826,0.383-2.706
		c0.611-2.326,1.605-4.464,3.311-6.209c1.497-1.533,3.279-2.397,5.473-2.228c1.095,0.084,2.107,0.441,3.058,0.976
		c0.22,0.123,0.351,0.124,0.53-0.09c3.922-4.671,8.97-7.583,14.722-9.389c2.709-0.85,5.473-1.424,8.294-1.737
		c0.095-0.011,0.221,0.044,0.272-0.098c0.428,0,0.854,0,1.281,0c0.323,0.124,0.543,0.364,0.732,0.641
		C48.421,2.708,48.421,3.195,48.421,3.684z M44.202,13.489c-0.026-0.151-0.157-0.22-0.25-0.313c-2.326-2.33-4.661-4.649-6.973-6.993
		c-0.312-0.317-0.542-0.377-0.962-0.209c-3.333,1.332-6.43,3.048-9.078,5.498c-3.192,2.951-5.638,6.448-7.524,10.352
		c-0.127,0.263-0.069,0.397,0.118,0.579c0.721,0.701,1.426,1.418,2.137,2.13c1.972,1.972,3.943,3.944,5.915,5.915
		c0.146,0.146,0.248,0.303,0.53,0.168c3.658-1.749,6.951-4.018,9.805-6.903c2.828-2.86,4.774-6.277,6.201-10.01
		C44.147,13.631,44.175,13.561,44.202,13.489z M12.437,21.222c0.996-0.506,1.983-0.783,3.02-0.85
		c0.789-0.05,1.586-0.102,2.322,0.283c0.206,0.108,0.2-0.074,0.244-0.154c0.313-0.573,0.606-1.157,0.922-1.729
		c0.772-1.401,1.653-2.733,2.604-4.02c0.088-0.12,0.264-0.231-0.018-0.37c-1.682-0.83-3.34-0.964-4.988,0.089
		c-1.409,0.9-2.329,2.212-3.061,3.67C13.006,19.089,12.642,20.083,12.437,21.222z M35.495,28.286
		c-0.64,0.445-1.26,0.886-1.889,1.313c-1.285,0.872-2.639,1.628-4.02,2.337c-0.104,0.054-0.355,0.04-0.239,0.275
		c0.404,0.819,0.341,1.683,0.26,2.549c-0.089,0.961-0.37,1.869-0.795,2.768c0.098,0,0.159,0.012,0.214-0.001
		c2.029-0.489,3.868-1.353,5.427-2.765C36.424,32.976,36.818,30.583,35.495,28.286z M12.36,37.427
		c-0.051,0.339,0.194,0.207,0.32,0.186c1.246-0.203,2.471-0.495,3.662-0.923c1.619-0.581,2.763-1.667,3.459-3.237
		c0.091-0.205,0.11-0.341-0.069-0.517c-0.904-0.884-1.794-1.782-2.683-2.681c-0.136-0.137-0.248-0.171-0.436-0.086
		c-0.875,0.39-1.668,0.9-2.265,1.65C13.046,33.457,12.769,35.468,12.36,37.427z M38.634,5.088c2.09,2.09,4.19,4.192,6.277,6.278
		c0.747-2.427,1.268-4.967,1.576-7.553c0.034-0.281-0.051-0.339-0.311-0.298c-0.617,0.098-1.237,0.169-1.854,0.263
		C42.37,4.076,40.454,4.535,38.634,5.088z M18.478,24.023c-0.455,1.114-0.813,2.271-1.126,3.44c-0.078,0.29,0.048,0.546,0.249,0.747
		c1.385,1.395,2.773,2.785,4.166,4.172c0.2,0.199,0.454,0.345,0.742,0.269c1.186-0.309,2.354-0.671,3.468-1.131
		C23.476,29.021,20.991,26.537,18.478,24.023z"/>
	<path fill-rule="evenodd" clip-rule="evenodd" fill="#8AB92D" d="M2.585,48.421c-0.046-0.056-0.086-0.121-0.142-0.167
		c-0.508-0.421-0.56-0.923-0.118-1.422c0.272-0.307,0.576-0.586,0.867-0.876c1.702-1.703,3.405-3.404,5.105-5.109
		c0.244-0.244,0.506-0.452,0.865-0.443c0.698,0.015,1.104,0.802,0.722,1.394c-0.098,0.152-0.229,0.284-0.357,0.413
		c-1.841,1.844-3.684,3.686-5.524,5.529c-0.263,0.262-0.517,0.532-0.867,0.682C2.952,48.421,2.769,48.421,2.585,48.421z"/>
	<path fill-rule="evenodd" clip-rule="evenodd" fill="#8AB92D" d="M9.904,48.421c-0.046-0.056-0.086-0.121-0.142-0.167
		c-0.508-0.421-0.561-0.923-0.119-1.422c0.272-0.307,0.576-0.586,0.867-0.876c1.702-1.703,3.406-3.404,5.105-5.109
		c0.244-0.244,0.506-0.452,0.865-0.443c0.699,0.015,1.104,0.802,0.722,1.394c-0.098,0.152-0.229,0.284-0.357,0.413
		c-1.84,1.844-3.684,3.686-5.525,5.529c-0.262,0.262-0.516,0.532-0.867,0.682C10.271,48.421,10.087,48.421,9.904,48.421z"/>
	<path fill-rule="evenodd" clip-rule="evenodd" fill="#8AB92D" d="M1.579,39.363c0.438-0.437,0.876-0.874,1.314-1.312
		c1.657-1.658,3.315-3.314,4.969-4.975c0.231-0.232,0.48-0.439,0.821-0.434c0.335,0.006,0.616,0.143,0.787,0.457
		c0.165,0.305,0.177,0.61-0.013,0.901c-0.107,0.163-0.241,0.313-0.38,0.451c-1.859,1.863-3.722,3.726-5.583,5.586
		c-0.816,0.816-1.112,0.824-1.914,0.056C1.579,39.851,1.579,39.607,1.579,39.363z"/>
	<path fill-rule="evenodd" clip-rule="evenodd" fill="#8AB92D" d="M48.421,2.22c-0.189-0.277-0.409-0.517-0.732-0.641
		c0.03,0,0.061,0,0.092,0C48.421,1.579,48.421,1.579,48.421,2.22z"/>
	<path fill-rule="evenodd" clip-rule="evenodd" fill="#8AB92D" d="M6.501,29.592c-0.013-0.229,0.126-0.446,0.312-0.633
		c0.813-0.821,1.626-1.644,2.453-2.453c0.43-0.421,0.971-0.442,1.345-0.086c0.395,0.374,0.385,0.92-0.059,1.375
		c-0.809,0.826-1.629,1.642-2.452,2.453c-0.304,0.302-0.668,0.43-1.081,0.232C6.675,30.315,6.494,30.033,6.501,29.592z"/>
	<path fill-rule="evenodd" clip-rule="evenodd" fill="#8AB92D" d="M20.415,43.5c-0.767-0.002-1.2-0.726-0.867-1.326
		c0.072-0.13,0.175-0.249,0.282-0.356c0.771-0.777,1.543-1.554,2.323-2.323c0.484-0.478,1.01-0.517,1.408-0.121
		c0.388,0.386,0.35,0.937-0.117,1.408c-0.78,0.791-1.568,1.573-2.354,2.358C20.882,43.347,20.652,43.519,20.415,43.5z"/>
	<path fill-rule="evenodd" clip-rule="evenodd" fill="#8AB92D" d="M34.552,19.995c-2.539-0.018-4.552-2.04-4.546-4.569
		c0.005-2.52,2.044-4.564,4.557-4.57c2.501-0.005,4.63,2.136,4.579,4.604C39.088,18.011,37.064,20.012,34.552,19.995z
		 M34.563,18.164c1.5,0.002,2.732-1.217,2.747-2.717c0.016-1.496-1.268-2.778-2.763-2.759c-1.503,0.019-2.717,1.251-2.713,2.751
		C31.839,16.95,33.053,18.162,34.563,18.164z"/>
	<path fill-rule="evenodd" clip-rule="evenodd" fill="#8AB92D" d="M28.105,22.806c-0.345-0.007-0.61-0.161-0.786-0.457
		c-0.178-0.3-0.201-0.63,0.013-0.903c0.466-0.6,0.996-1.147,1.604-1.604c0.339-0.255,0.787-0.174,1.086,0.118
		c0.295,0.287,0.396,0.753,0.149,1.083c-0.463,0.622-1.027,1.154-1.632,1.64C28.418,22.78,28.264,22.806,28.105,22.806z"/>
	<path fill-rule="evenodd" clip-rule="evenodd" fill="#8AB92D" d="M25.511,25.389c-0.495,0-0.895-0.396-0.899-0.89
		c-0.005-0.492,0.39-0.902,0.878-0.916c0.493-0.013,0.936,0.423,0.929,0.917C26.411,24.986,26,25.388,25.511,25.389z"/>
</g>
</svg>
