<?xml version="1.0" encoding="utf-8"?>
<!-- Generator: Adobe Illustrator 16.0.0, SVG Export Plug-In . SVG Version: 6.00 Build 0)  -->
<!DOCTYPE svg PUBLIC "-//W3C//DTD SVG 1.1//EN" "http://www.w3.org/Graphics/SVG/1.1/DTD/svg11.dtd">
<svg version="1.1" id="light" xmlns="http://www.w3.org/2000/svg" xmlns:xlink="http://www.w3.org/1999/xlink" x="0px" y="0px"
	 width="50px" height="50px" viewBox="231 231 50 50" enable-background="new 231 231 50 50" xml:space="preserve">
<g>
	<g>
		<path fill="#8AB92D" d="M274.563,275.512H237.49c-2.732,0-4.878-2.146-4.878-4.878V247.22c0-2.731,2.146-4.878,4.878-4.878h37.074
			c2.73,0,4.877,2.146,4.877,4.878v23.414C279.44,273.365,277.294,275.512,274.563,275.512z M237.49,244.293
			c-1.561,0-2.927,1.365-2.927,2.927v23.414c0,1.561,1.366,2.927,2.927,2.927h37.074c1.56,0,2.926-1.366,2.926-2.927V247.22
			c0-1.562-1.366-2.927-2.926-2.927H237.49z"/>
	</g>
	<g>
		<path fill="#8AB92D" d="M262.855,244.293c-0.585,0-0.976-0.391-0.976-0.976v-3.902c0-0.586-0.39-0.976-0.976-0.976h-9.756
			c-0.585,0-0.976,0.39-0.976,0.976v3.902c0,0.585-0.39,0.976-0.976,0.976c-0.585,0-0.976-0.391-0.976-0.976v-3.902
			c0-1.562,1.366-2.927,2.927-2.927h9.756c1.562,0,2.927,1.365,2.927,2.927v3.902C263.831,243.903,263.44,244.293,262.855,244.293z"
			/>
	</g>
	<g>
		<path fill="#8AB92D" d="M256.026,259.902c-0.195,0-0.195,0-0.391,0l-22.438-7.804c-0.39-0.195-0.781-0.78-0.585-1.366
			c0.195-0.391,0.781-0.78,1.366-0.585l22.048,7.805l22.049-7.805c0.585-0.195,0.975,0,1.171,0.585c0.194,0.586,0,0.976-0.586,1.171
			l-22.439,7.805C256.221,259.902,256.221,259.902,256.026,259.902L256.026,259.902z"/>
	</g>
</g>
</svg>
